<svg width="1920" height="2856" viewBox="0 0 1920 2856" fill="none" xmlns="http://www.w3.org/2000/svg">
<path fill-rule="evenodd" clip-rule="evenodd" d="M1484.01 6.71552C1671.5 16.2162 1920 6.71552 1920 6.71552V99V99.2155V2757V2778V2851C1920 2851 1609.75 2868.25 1402.02 2840C1190.88 2811.28 1031.62 2823.89 865.415 2837.05H865.411C735.793 2847.31 601.951 2857.91 435.991 2849.5C248.5 2840 0 2849.5 0 2849.5V2778V2757V99.2155V99V5.21552C0 5.21552 310.248 -12.0374 517.98 16.2155C729.116 44.9313 888.379 32.3224 1054.59 19.1639C1184.21 8.90202 1318.05 -1.6942 1484.01 6.71552Z" fill="#FAFAFF"/>
</svg>
