<svg width="124" height="86" viewBox="0 0 124 86" fill="none" xmlns="http://www.w3.org/2000/svg">
<path id="Vector" d="M3 39.581C5.98635 40.6921 8.94199 41.9148 11.9493 42.966M32.0162 6.14268C33.2697 9.45494 34.7771 12.6585 36.0777 15.949M71.5344 15.6072C74.0407 11.4868 76.1209 7.12584 78.6162 3M107.733 42.5667C112.097 40.6288 116.567 38.7241 120.744 36.4017M86.5794 49.0984C88.6989 48.3327 90.7667 47.3828 92.9162 46.7055M83.5156 62.8969C86.3176 61.6217 89.1452 60.4482 91.9644 59.2218M80.0537 76.8749C82.7659 75.6596 85.5013 74.476 88.1722 73.1723M66.1163 83C69.6376 81.369 73.1454 79.627 76.7402 78.1623M56.7043 76.1583C52.7822 78.208 48.5943 80.1867 44.9774 82.7538M79.5951 78.6632C82.6881 66.7042 85.4215 54.5196 88.0461 42.4566C81.819 45.3051 76.45 48.8634 70.8585 52.8279C67.7741 47.7301 61.3672 40.9415 56.6835 37.3019C51.2679 42.6804 47.3531 47.6118 43.0597 53.749C38.361 50.0108 33.6505 47.0836 28.1489 44.6207C29.9991 56.052 32.5937 67.2885 35.8271 78.4059C42.3048 76.1921 46.5747 76.3632 52.3728 76.1921C62.3365 75.8972 69.7363 76.7972 79.5951 78.6632Z" stroke="url(#paint0_linear_58_1183)" stroke-width="6" stroke-miterlimit="1.5" stroke-linecap="round" stroke-linejoin="round"/>
<defs>
<linearGradient id="paint0_linear_58_1183" x1="3" y1="43.1794" x2="120.744" y2="43.1794" gradientUnits="userSpaceOnUse">
<stop stop-color="#7A5AF8"/>
<stop offset="1" stop-color="#F670C7"/>
</linearGradient>
</defs>
</svg>
