<svg width="75" height="86" viewBox="0 0 75 86" fill="none" xmlns="http://www.w3.org/2000/svg">
<path id="Vector" d="M38.1954 78.4676C38.2317 79.9765 38.2495 81.4934 38.1308 83M3 55.43C4.58327 54.5943 6.23678 53.9069 7.83701 53.1076M3 22.9533C4.76736 24.0755 6.45801 25.3158 8.22941 26.4284M37.8858 9.65142C37.8236 7.42871 37.8373 5.22191 37.9084 3M65.245 24.7922C67.4636 23.3236 69.7485 21.9438 72.0051 20.5342M61.3723 55.0805C63.0831 56.6137 64.8012 58.1292 66.4571 59.7221M18.8089 37.7695C22.2892 21.8674 46.655 18.682 53.8868 33.1574C55.6067 36.6005 55.7101 42.0708 54.8171 45.9442C53.8784 50.0151 51.4062 52.4002 49.6584 56.0491C48.8174 57.8055 47.603 60.6631 47.0061 63.0658H26.7073C25.5635 54.0801 16.7089 47.365 18.8089 37.7695ZM26.3349 75.3118C26.329 72.5391 26.193 69.7665 26.2411 66.9946C26.2602 65.897 26.0727 64.5544 27.0226 63.787C28.4098 62.6669 30.4732 62.5037 32.1947 62.4623C35.4213 62.3851 38.6727 62.4123 41.9026 62.4189C43.3736 62.4214 45.5688 62.166 46.8946 62.8969C48.1565 63.5914 48.476 65.4844 48.6178 66.7629C48.89 69.2129 49.6143 74.6836 47.5343 76.5802C46.2243 77.7749 44.1808 78.0249 42.5032 78.2315C38.0529 78.779 26.3415 78.6703 26.3349 75.3118Z" stroke="url(#paint0_linear_58_1176)" stroke-width="6" stroke-miterlimit="1.5" stroke-linecap="round" stroke-linejoin="round"/>
<defs>
<linearGradient id="paint0_linear_58_1176" x1="3" y1="43.1794" x2="72.0051" y2="43.1794" gradientUnits="userSpaceOnUse">
<stop stop-color="#7A5AF8"/>
<stop offset="1" stop-color="#F670C7"/>
</linearGradient>
</defs>
</svg>
