<svg width="166" height="41" viewBox="0 0 166 41" fill="none" xmlns="http://www.w3.org/2000/svg">
<g id="Hand-drawn-vector">
<path fill-rule="evenodd" clip-rule="evenodd" d="M0.660419 23.1882C1.33978 21.547 3.2038 20.7745 4.82382 21.4627C14.0031 25.3623 23.3081 28.9797 32.6558 32.6136C34.131 33.1871 35.6072 33.761 37.0841 34.3364C38.7238 34.9753 39.5417 36.8397 38.9111 38.5007C38.2805 40.1617 36.4401 40.9903 34.8005 40.3515C33.3316 39.7791 31.8604 39.2072 30.3876 38.6347C21.0457 35.0031 11.6403 31.3468 2.36363 27.4059C0.743609 26.7177 -0.0189435 24.8293 0.660419 23.1882Z" fill="url(#paint0_linear_337_858)"/>
<path fill-rule="evenodd" clip-rule="evenodd" d="M85.7626 0.595364C87.5102 0.363419 89.1189 1.5621 89.3559 3.27269C89.7591 6.18309 90.3512 9.13626 90.9692 12.2186C91.2244 13.4913 91.484 14.7861 91.7365 16.1089C92.5814 20.5348 93.3212 25.1654 93.3212 29.7009C93.3212 31.4271 91.8916 32.8265 90.128 32.8265C88.3644 32.8265 86.9348 31.4271 86.9348 29.7009C86.9348 25.7718 86.2901 21.6123 85.4587 17.2572C85.2308 16.0631 84.9863 14.8438 84.7394 13.612C84.1066 10.4554 83.4574 7.21714 83.0274 4.11264C82.7904 2.40205 84.015 0.827308 85.7626 0.595364Z" fill="url(#paint1_linear_337_858)"/>
<path fill-rule="evenodd" clip-rule="evenodd" d="M163.431 5.90169C165.111 6.47889 165.995 8.28125 165.406 9.92735C162.226 18.8151 158.042 26.7786 151.971 34.2165C150.859 35.5786 148.832 35.7994 147.442 34.7097C146.052 33.62 145.827 31.6324 146.939 30.2703C152.48 23.4807 156.342 16.1735 159.324 7.8371C159.913 6.191 161.752 5.32448 163.431 5.90169Z" fill="url(#paint2_linear_337_858)"/>
</g>
<defs>
<linearGradient id="paint0_linear_337_858" x1="0.412109" y1="20.6566" x2="165.588" y2="20.6566" gradientUnits="userSpaceOnUse">
<stop stop-color="#7A5AF8"/>
<stop offset="1" stop-color="#F670C7"/>
</linearGradient>
<linearGradient id="paint1_linear_337_858" x1="0.412109" y1="20.6566" x2="165.588" y2="20.6566" gradientUnits="userSpaceOnUse">
<stop stop-color="#7A5AF8"/>
<stop offset="1" stop-color="#F670C7"/>
</linearGradient>
<linearGradient id="paint2_linear_337_858" x1="0.412109" y1="20.6566" x2="165.588" y2="20.6566" gradientUnits="userSpaceOnUse">
<stop stop-color="#7A5AF8"/>
<stop offset="1" stop-color="#F670C7"/>
</linearGradient>
</defs>
</svg>
