<svg width="137" height="33" viewBox="0 0 137 33" fill="none" xmlns="http://www.w3.org/2000/svg">
<g id="Logo">
<path fill-rule="evenodd" clip-rule="evenodd" d="M16.667 25.1702C21.6744 25.1702 25.7337 21.1109 25.7337 16.1035C25.7337 11.0961 21.6744 7.03685 16.667 7.03685C11.6596 7.03685 7.60032 11.0961 7.60032 16.1035C7.60032 21.1109 11.6596 25.1702 16.667 25.1702ZM16.667 32.1035C25.5035 32.1035 32.667 24.9401 32.667 16.1035C32.667 7.26696 25.5035 0.103516 16.667 0.103516C7.83043 0.103516 0.666992 7.26696 0.666992 16.1035C0.666992 24.9401 7.83043 32.1035 16.667 32.1035Z" fill="#FCFCFD"/>
<path d="M16.85 16.4538C18.5162 14.7876 21.2177 14.7876 22.884 16.4538L31.1807 24.7506C32.8469 26.4168 32.8469 29.1183 31.1807 30.7845C29.5145 32.4508 26.813 32.4508 25.1467 30.7845L16.85 22.4878C15.1838 20.8216 15.1838 18.1201 16.85 16.4538Z" fill="#FCFCFD"/>
<path d="M19.1797 24.8175L24.449 30.0868C26.9764 28.6773 29.0821 26.6023 30.5291 24.099L25.303 18.8728C24.385 21.7378 22.0808 23.9825 19.1797 24.8175Z" fill="#EAECF0"/>
<path d="M58.4997 24.9035C58.0381 25.4737 57.4747 25.9081 56.8095 26.2068C56.1579 26.5055 55.4384 26.6548 54.651 26.6548C53.5921 26.6548 52.635 26.424 51.7797 25.9624C50.9244 25.5144 49.947 24.7135 48.8473 23.5595C47.5577 23.3966 46.4037 22.9825 45.3855 22.3173C44.3809 21.6521 43.5935 20.7969 43.0233 19.7515C42.4667 18.6926 42.1884 17.5251 42.1884 16.249C42.1884 14.8507 42.521 13.5949 43.1863 12.4817C43.865 11.3549 44.795 10.4725 45.9761 9.83442C47.1707 9.19636 48.508 8.87733 49.9877 8.87733C51.4675 8.87733 52.7979 9.19636 53.979 9.83442C55.1601 10.4725 56.09 11.3549 56.7688 12.4817C57.4476 13.5949 57.787 14.8507 57.787 16.249C57.787 17.9052 57.3186 19.3578 56.3819 20.6068C55.4587 21.8558 54.2301 22.7246 52.6961 23.2133C53.0355 23.5663 53.3613 23.8175 53.6735 23.9668C53.9993 24.1297 54.3455 24.2112 54.7121 24.2112C55.5945 24.2112 56.3683 23.8582 57.0335 23.1522L58.4997 24.9035ZM45.5281 16.249C45.5281 17.1314 45.7181 17.9188 46.0983 18.6112C46.492 19.3035 47.0282 19.8465 47.707 20.2402C48.3858 20.6204 49.146 20.8104 49.9877 20.8104C50.8294 20.8104 51.5897 20.6204 52.2684 20.2402C52.9472 19.8465 53.4767 19.3035 53.8568 18.6112C54.2505 17.9188 54.4474 17.1314 54.4474 16.249C54.4474 15.3665 54.2505 14.5792 53.8568 13.8868C53.4767 13.1944 52.9472 12.6582 52.2684 12.2781C51.5897 11.8844 50.8294 11.6875 49.9877 11.6875C49.146 11.6875 48.3858 11.8844 47.707 12.2781C47.0282 12.6582 46.492 13.1944 46.0983 13.8868C45.7181 14.5792 45.5281 15.3665 45.5281 16.249Z" fill="#FCFCFD"/>
<path d="M71.0794 12.4206V23.3762H68.0655V22.073C67.6447 22.5481 67.1424 22.9147 66.5586 23.1726C65.9749 23.417 65.3436 23.5392 64.6648 23.5392C63.2258 23.5392 62.0854 23.1251 61.2437 22.297C60.402 21.4688 59.9812 20.2402 59.9812 18.6112V12.4206H63.1579V18.1428C63.1579 19.9076 63.8978 20.7901 65.3775 20.7901C66.1378 20.7901 66.7487 20.5457 67.2103 20.057C67.6718 19.5547 67.9026 18.8148 67.9026 17.8373V12.4206H71.0794Z" fill="#FCFCFD"/>
<path d="M79.2355 23.5392C78.0815 23.5392 77.043 23.3016 76.1198 22.8264C75.2103 22.3377 74.4975 21.6657 73.9816 20.8104C73.4658 19.9552 73.2078 18.9845 73.2078 17.8984C73.2078 16.8124 73.4658 15.8417 73.9816 14.9864C74.4975 14.1312 75.2103 13.4659 76.1198 12.9908C77.043 12.5021 78.0815 12.2577 79.2355 12.2577C80.3894 12.2577 81.4212 12.5021 82.3307 12.9908C83.2403 13.4659 83.953 14.1312 84.4689 14.9864C84.9848 15.8417 85.2427 16.8124 85.2427 17.8984C85.2427 18.9845 84.9848 19.9552 84.4689 20.8104C83.953 21.6657 83.2403 22.3377 82.3307 22.8264C81.4212 23.3016 80.3894 23.5392 79.2355 23.5392ZM79.2355 20.9326C80.05 20.9326 80.7152 20.6611 81.2311 20.1181C81.7606 19.5615 82.0253 18.8216 82.0253 17.8984C82.0253 16.9753 81.7606 16.2422 81.2311 15.6992C80.7152 15.1425 80.05 14.8642 79.2355 14.8642C78.4209 14.8642 77.7489 15.1425 77.2195 15.6992C76.69 16.2422 76.4253 16.9753 76.4253 17.8984C76.4253 18.8216 76.69 19.5615 77.2195 20.1181C77.7489 20.6611 78.4209 20.9326 79.2355 20.9326Z" fill="#FCFCFD"/>
<path d="M94.4323 22.8468C94.1201 23.0776 93.7331 23.2541 93.2716 23.3762C92.8236 23.4848 92.3484 23.5392 91.8461 23.5392C90.5428 23.5392 89.5314 23.2065 88.8119 22.5413C88.106 21.8761 87.753 20.8987 87.753 19.609V15.1086H86.0629V12.665H87.753V9.99733H90.9298V12.665H93.6585V15.1086H90.9298V19.5682C90.9298 20.0298 91.0452 20.3896 91.2759 20.6475C91.5203 20.8919 91.8597 21.0141 92.2941 21.0141C92.7964 21.0141 93.2241 20.8783 93.577 20.6068L94.4323 22.8468Z" fill="#FCFCFD"/>
<path d="M96.2155 12.4206H99.3923V23.3762H96.2155V12.4206ZM97.8039 10.8933C97.2201 10.8933 96.745 10.7236 96.3785 10.3842C96.0119 10.0448 95.8286 9.624 95.8286 9.1217C95.8286 8.61939 96.0119 8.19855 96.3785 7.85915C96.745 7.51976 97.2201 7.35006 97.8039 7.35006C98.3877 7.35006 98.8628 7.51297 99.2294 7.83879C99.5959 8.16461 99.7792 8.57188 99.7792 9.06061C99.7792 9.59006 99.5959 10.0313 99.2294 10.3842C98.8628 10.7236 98.3877 10.8933 97.8039 10.8933Z" fill="#FCFCFD"/>
<path d="M113.072 17.9392C113.072 17.9799 113.052 18.265 113.011 18.7944H104.723C104.872 19.4732 105.225 20.0095 105.782 20.4032C106.339 20.7968 107.031 20.9937 107.859 20.9937C108.429 20.9937 108.932 20.9122 109.366 20.7493C109.814 20.5728 110.228 20.3013 110.608 19.9348L112.298 21.7675C111.267 22.9486 109.76 23.5392 107.778 23.5392C106.542 23.5392 105.449 23.3016 104.499 22.8264C103.549 22.3377 102.816 21.6657 102.3 20.8104C101.784 19.9552 101.526 18.9845 101.526 17.8984C101.526 16.8259 101.777 15.8621 102.279 15.0068C102.795 14.1379 103.494 13.4659 104.377 12.9908C105.273 12.5021 106.271 12.2577 107.37 12.2577C108.443 12.2577 109.414 12.4885 110.282 12.9501C111.151 13.4116 111.83 14.0768 112.319 14.9457C112.821 15.801 113.072 16.7988 113.072 17.9392ZM107.391 14.6606C106.671 14.6606 106.067 14.8642 105.578 15.2715C105.09 15.6788 104.791 16.2354 104.682 16.9413H110.079C109.97 16.249 109.671 15.6992 109.183 15.2919C108.694 14.871 108.097 14.6606 107.391 14.6606Z" fill="#FCFCFD"/>
<path d="M121.846 12.2577C123.204 12.2577 124.296 12.665 125.125 13.4795C125.966 14.2941 126.387 15.5023 126.387 17.1042V23.3762H123.21V17.593C123.21 16.7241 123.02 16.0793 122.64 15.6584C122.26 15.224 121.71 15.0068 120.991 15.0068C120.19 15.0068 119.552 15.2579 119.077 15.7602C118.601 16.249 118.364 16.9821 118.364 17.9595V23.3762H115.187V12.4206H118.221V13.7035C118.642 13.2419 119.165 12.889 119.789 12.6446C120.414 12.3867 121.099 12.2577 121.846 12.2577Z" fill="#FCFCFD"/>
<path d="M136.333 22.8468C136.021 23.0776 135.634 23.2541 135.172 23.3762C134.724 23.4848 134.249 23.5392 133.747 23.5392C132.443 23.5392 131.432 23.2065 130.713 22.5413C130.007 21.8761 129.654 20.8987 129.654 19.609V15.1086H127.963V12.665H129.654V9.99733H132.83V12.665H135.559V15.1086H132.83V19.5682C132.83 20.0298 132.946 20.3896 133.177 20.6475C133.421 20.8919 133.76 21.0141 134.195 21.0141C134.697 21.0141 135.125 20.8783 135.478 20.6068L136.333 22.8468Z" fill="#FCFCFD"/>
</g>
</svg>
