<svg width="153" height="134" viewBox="0 0 153 134" fill="none" xmlns="http://www.w3.org/2000/svg">
<g id="Group 1000004245">
<path id="Vector" d="M79.2142 98.3038C75.7859 98.3038 70.1435 96.5896 70.1435 94.0184C70.1435 92.09 70.8577 89.0189 71.572 87.4476C74.5717 70.092 78.4999 54.4504 79.7141 51.0936C76.9287 52.6649 71.2149 57.3073 70.6435 58.0216C70.3578 58.3787 70.1435 58.4501 69.8578 58.4501C67.7152 58.4501 62.5728 54.1648 62.5728 51.7364C62.5728 51.3079 62.8584 50.8079 63.5727 50.0937C67.7866 45.8798 84.5708 35.7378 86.0707 35.7378C87.9277 35.7378 94.07 40.3088 94.07 42.7372C94.07 43.1657 93.9272 43.38 93.4986 44.1656C89.2133 51.9507 84.428 73.8773 81.714 97.3039C81.6425 97.9467 80.714 98.3038 79.2142 98.3038Z" fill="#FCFCFD"/>
<path id="Vector_2" d="M56.9762 20.3166C56.9762 20.3166 8.89458 28.3394 3.56384 67.3317C-3.13639 116.342 51.2573 140.425 93.4488 126.792C149.467 108.692 166.047 55.1228 134.197 20.3166C105.444 -11.105 45.7198 8.76225 45.7198 8.76225" stroke="#FCFCFD" stroke-width="5" stroke-linecap="round"/>
</g>
</svg>
