<svg width="154" height="134" viewBox="0 0 154 134" fill="none" xmlns="http://www.w3.org/2000/svg">
<g id="Hand-drawn-vector">
<path id="Vector" d="M64.8136 99.517C62.0282 99.517 56.8857 95.9459 56.8857 93.589C56.8857 93.1604 57.0286 92.9462 57.3143 92.5891C61.5996 87.2324 71.6702 73.805 78.9553 62.306C83.7406 54.7352 85.4547 48.5214 84.6691 44.6646C76.0984 46.1645 70.8131 59.2348 70.8131 63.0916C70.8131 63.8058 70.456 63.9487 69.8132 63.9487C67.3848 63.9487 61.5996 60.3061 61.671 58.0206C61.8853 51.2355 69.956 36.3796 80.7408 36.3796C86.4546 36.3796 95.3824 41.3078 95.3824 49.0214C95.3824 58.8777 86.2403 72.2337 79.4552 80.7329C87.4545 77.0904 96.9537 74.5192 98.3821 74.5192C100.311 74.5192 103.953 80.0187 103.953 82.5899C103.953 84.4469 101.882 84.1612 100.668 84.3755C98.025 84.9469 77.8839 90.7321 66.5278 98.8742C66.0278 99.2313 65.8135 99.517 64.8136 99.517Z" fill="#FCFCFD"/>
<path id="Vector_2" d="M57.3097 112.818C57.3097 112.818 9.22807 104.795 3.89734 65.8024C-2.80289 16.7924 51.5908 -7.29048 93.7823 6.34199C149.801 24.4422 166.381 78.0116 134.531 112.818C105.778 144.239 46.0533 124.372 46.0533 124.372" stroke="#FCFCFD" stroke-width="5" stroke-linecap="round"/>
</g>
</svg>
