<svg width="153" height="134" viewBox="0 0 153 134" fill="none" xmlns="http://www.w3.org/2000/svg">
<g id="Hand-drawn-vector">
<path id="Vector" d="M63.6314 99.5144C59.4889 99.5144 55.4893 94.7291 55.4893 91.3008C55.4893 90.3723 55.8464 89.8009 56.9891 89.8009C65.4884 89.8009 81.6298 78.8733 84.4153 70.1598C80.13 70.1598 76.8445 70.874 72.702 73.4452C70.8451 74.588 65.9883 68.3742 65.9883 65.8744C65.9883 65.3745 66.2026 65.0888 66.6311 64.8031C73.3449 60.3035 84.1296 53.3041 87.1294 46.6618C81.487 46.6618 75.7732 49.3759 69.2738 54.0183C68.5595 54.5183 68.2024 54.6611 67.9167 54.6611C65.8455 54.6611 61.9887 49.233 61.9887 46.7332C61.9887 46.1619 62.203 45.7333 62.9172 45.1619C68.2739 40.8766 77.6302 36.877 84.6296 36.877C88.1293 36.877 90.7005 38.4482 92.986 40.7338C95.4144 43.1621 97.0571 46.3761 97.0571 49.5187C97.0571 53.4469 91.2719 59.5178 87.7007 62.6604C90.4148 63.8746 94.843 67.2315 94.843 72.1596C94.843 83.3015 75.6304 99.5144 63.6314 99.5144Z" fill="#FCFCFD"/>
<path id="Vector_2" d="M56.6427 20.3166C56.6427 20.3166 8.56108 28.3394 3.23034 67.3317C-3.46989 116.342 50.9238 140.425 93.1153 126.792C149.134 108.692 165.714 55.1228 133.864 20.3166C105.111 -11.105 45.3863 8.76225 45.3863 8.76225" stroke="#FCFCFD" stroke-width="5" stroke-linecap="round"/>
</g>
</svg>
