<svg width="257" height="27" viewBox="0 0 257 27" fill="none" xmlns="http://www.w3.org/2000/svg">
<path fill-rule="evenodd" clip-rule="evenodd" d="M8.63938 5.212C8.5751 4.83057 8.52667 4.45347 8.49539 4.07633C8.44824 3.51062 8.47739 2.94058 8.46067 2.37486C8.45339 2.13486 8.42467 1.50916 8.43624 1.41916C8.54124 0.63487 9.17424 0.514855 9.35938 0.493426C9.44895 0.480569 10.3687 0.377758 10.5671 1.39776C10.8105 2.6449 10.8885 3.9006 10.8024 5.1306C11.0034 6.17631 11.3471 7.21772 11.801 8.16058C13.607 11.9106 17.0484 12.2749 20.7769 12.2406C21.3504 12.232 21.8265 12.682 21.8565 13.252C21.8865 13.8263 21.4597 14.3234 20.8888 14.3749C18.8047 14.5763 15.1069 16.2477 13.8285 17.9877C13.5611 18.352 13.4055 19.2306 13.1998 20.092C12.9127 21.2878 12.5711 22.4706 12.1884 22.9677C12.131 23.0449 11.4328 23.8335 11.2245 23.9492C10.7239 24.2235 10.3232 24.0649 10.0957 23.9192C9.8681 23.7734 9.61053 23.4863 9.50767 23.0106C9.4001 22.5134 9.49096 21.4934 9.47424 21.2749C9.41338 20.482 9.25483 18.9263 8.93125 17.5891C8.75683 16.8692 8.57082 16.2049 8.2631 15.8749C7.12396 14.6534 5.30253 14.8335 3.76867 15.0349C3.59253 15.0563 3.41639 15.082 3.24068 15.1035C2.61625 15.2878 1.95323 15.4249 1.25252 15.5063C0.194375 15.6306 0.0203869 14.6577 0.0109583 14.5934C-0.00875595 14.452 -0.0820494 13.7235 0.715522 13.432C0.802522 13.402 1.44453 13.2606 1.69181 13.2049C2.03639 13.1277 2.38481 13.0677 2.73452 13.012C6.34695 11.8892 8.30896 8.73486 8.63938 5.212ZM9.87924 9.10775C11.243 11.9278 13.3125 13.2906 15.7657 13.9077C14.234 14.7092 12.8402 15.712 12.1018 16.7192C11.8215 17.1006 11.5644 17.8677 11.3325 18.7292C11.207 17.9277 11.0373 17.0749 10.8131 16.3463C10.5581 15.5149 10.2148 14.8249 9.83166 14.4135C9.09195 13.6206 8.16366 13.1792 7.16552 12.9606C8.36037 11.902 9.26639 10.582 9.87924 9.10775Z" fill="#7A5AF8"/>
<path d="M45.2474 21.4824V4.02787H51.4689C52.8212 4.02787 53.9434 4.26083 54.8354 4.72674C55.7332 5.19265 56.4036 5.83753 56.8468 6.6614C57.29 7.47958 57.5116 8.4256 57.5116 9.49947C57.5116 10.5676 57.2871 11.508 56.8383 12.3205C56.3951 13.1273 55.7246 13.7551 54.8269 14.204C53.9349 14.6529 52.8127 14.8773 51.4604 14.8773H46.7474V12.6103H51.2218C52.0741 12.6103 52.7672 12.4881 53.3013 12.2438C53.8411 11.9995 54.236 11.6444 54.486 11.1784C54.736 10.7125 54.861 10.1529 54.861 9.49947C54.861 8.84037 54.7332 8.26935 54.4775 7.7864C54.2275 7.30344 53.8326 6.93412 53.2928 6.67844C52.7587 6.41708 52.057 6.2864 51.1877 6.2864H47.8809V21.4824H45.2474ZM53.8638 13.6074L58.1763 21.4824H55.1763L50.9491 13.6074H53.8638Z" fill="#7A5AF8"/>
<path d="M65.3917 21.7466C64.1644 21.7466 63.0934 21.4654 62.1786 20.9029C61.2639 20.3404 60.5536 19.5534 60.048 18.5421C59.5423 17.5307 59.2894 16.3489 59.2894 14.9966C59.2894 13.6387 59.5423 12.4512 60.048 11.4341C60.5536 10.4171 61.2639 9.62731 62.1786 9.06481C63.0934 8.50231 64.1644 8.22106 65.3917 8.22106C66.619 8.22106 67.69 8.50231 68.6048 9.06481C69.5195 9.62731 70.2298 10.4171 70.7355 11.4341C71.2411 12.4512 71.494 13.6387 71.494 14.9966C71.494 16.3489 71.2411 17.5307 70.7355 18.5421C70.2298 19.5534 69.5195 20.3404 68.6048 20.9029C67.69 21.4654 66.619 21.7466 65.3917 21.7466ZM65.4002 19.6074C66.1957 19.6074 66.8548 19.3972 67.3775 18.9767C67.9002 18.5563 68.2866 17.9966 68.5366 17.2978C68.7923 16.5989 68.9201 15.829 68.9201 14.9881C68.9201 14.1529 68.7923 13.3858 68.5366 12.687C68.2866 11.9824 67.9002 11.4171 67.3775 10.9909C66.8548 10.5648 66.1957 10.3517 65.4002 10.3517C64.5991 10.3517 63.9343 10.5648 63.4059 10.9909C62.8832 11.4171 62.494 11.9824 62.2383 12.687C61.9883 13.3858 61.8633 14.1529 61.8633 14.9881C61.8633 15.829 61.9883 16.5989 62.2383 17.2978C62.494 17.9966 62.8832 18.5563 63.4059 18.9767C63.9343 19.3972 64.5991 19.6074 65.4002 19.6074Z" fill="#7A5AF8"/>
<path d="M76.4167 4.02787V21.4824H73.8684V4.02787H76.4167Z" fill="#7A5AF8"/>
<path d="M81.9233 4.02787V21.4824H79.375V4.02787H81.9233Z" fill="#7A5AF8"/>
<path d="M84.8816 21.4824V8.39151H87.4299V21.4824H84.8816ZM86.1685 6.37162C85.7253 6.37162 85.3446 6.2239 85.0264 5.92844C84.7139 5.62731 84.5577 5.26935 84.5577 4.85458C84.5577 4.43412 84.7139 4.07617 85.0264 3.78071C85.3446 3.47958 85.7253 3.32901 86.1685 3.32901C86.6117 3.32901 86.9895 3.47958 87.302 3.78071C87.6202 4.07617 87.7793 4.43412 87.7793 4.85458C87.7793 5.26935 87.6202 5.62731 87.302 5.92844C86.9895 6.2239 86.6117 6.37162 86.1685 6.37162Z" fill="#7A5AF8"/>
<path d="M92.9364 13.7097V21.4824H90.3881V8.39151H92.8341V10.5222H92.9961C93.2972 9.82901 93.7688 9.27219 94.4109 8.85174C95.0586 8.43128 95.8739 8.22106 96.8569 8.22106C97.7489 8.22106 98.5302 8.40856 99.2006 8.78356C99.8711 9.15287 100.391 9.70401 100.76 10.437C101.13 11.1699 101.314 12.0762 101.314 13.1557V21.4824H98.766V13.4625C98.766 12.5137 98.5188 11.7722 98.0245 11.2381C97.5302 10.6983 96.8512 10.4284 95.9876 10.4284C95.3966 10.4284 94.8711 10.5563 94.4109 10.812C93.9563 11.0676 93.5955 11.4426 93.3285 11.937C93.0671 12.4256 92.9364 13.0165 92.9364 13.7097Z" fill="#7A5AF8"/>
<path d="M106.197 4.02787V10.2409H104.083V4.02787H106.197Z" fill="#7A5AF8"/>
<path d="M114.244 6.29492V4.02787H127.752V6.29492H122.306V21.4824H119.681V6.29492H114.244Z" fill="#7A5AF8"/>
<path d="M133.679 21.7466C132.451 21.7466 131.38 21.4654 130.465 20.9029C129.551 20.3404 128.84 19.5534 128.335 18.5421C127.829 17.5307 127.576 16.3489 127.576 14.9966C127.576 13.6387 127.829 12.4512 128.335 11.4341C128.84 10.4171 129.551 9.62731 130.465 9.06481C131.38 8.50231 132.451 8.22106 133.679 8.22106C134.906 8.22106 135.977 8.50231 136.892 9.06481C137.806 9.62731 138.517 10.4171 139.022 11.4341C139.528 12.4512 139.781 13.6387 139.781 14.9966C139.781 16.3489 139.528 17.5307 139.022 18.5421C138.517 19.5534 137.806 20.3404 136.892 20.9029C135.977 21.4654 134.906 21.7466 133.679 21.7466ZM133.687 19.6074C134.483 19.6074 135.142 19.3972 135.664 18.9767C136.187 18.5563 136.573 17.9966 136.823 17.2978C137.079 16.5989 137.207 15.829 137.207 14.9881C137.207 14.1529 137.079 13.3858 136.823 12.687C136.573 11.9824 136.187 11.4171 135.664 10.9909C135.142 10.5648 134.483 10.3517 133.687 10.3517C132.886 10.3517 132.221 10.5648 131.693 10.9909C131.17 11.4171 130.781 11.9824 130.525 12.687C130.275 13.3858 130.15 14.1529 130.15 14.9881C130.15 15.829 130.275 16.5989 130.525 17.2978C130.781 17.9966 131.17 18.5563 131.693 18.9767C132.221 19.3972 132.886 19.6074 133.687 19.6074Z" fill="#7A5AF8"/>
<path d="M147.644 26.6642C146.604 26.6642 145.709 26.5279 144.959 26.2551C144.215 25.9824 143.607 25.6216 143.135 25.1728C142.664 24.7239 142.312 24.2324 142.079 23.6983L144.269 22.7949C144.422 23.0449 144.627 23.3091 144.883 23.5875C145.144 23.8716 145.496 24.1131 145.939 24.312C146.388 24.5108 146.965 24.6103 147.67 24.6103C148.635 24.6103 149.434 24.3745 150.064 23.9029C150.695 23.437 151.01 22.6926 151.01 21.6699V19.0961H150.848C150.695 19.3745 150.473 19.6841 150.184 20.025C149.9 20.3659 149.508 20.6614 149.008 20.9114C148.508 21.1614 147.857 21.2864 147.056 21.2864C146.022 21.2864 145.09 21.0449 144.26 20.562C143.437 20.0733 142.783 19.3546 142.3 18.4057C141.823 17.4512 141.584 16.2779 141.584 14.8858C141.584 13.4938 141.82 12.3006 142.292 11.3063C142.769 10.312 143.422 9.5506 144.252 9.02219C145.081 8.4881 146.022 8.22106 147.073 8.22106C147.885 8.22106 148.542 8.35742 149.042 8.63015C149.542 8.89719 149.931 9.20969 150.209 9.56765C150.493 9.9256 150.712 10.2409 150.866 10.5137H151.053V8.39151H153.55V21.7722C153.55 22.8972 153.289 23.8205 152.766 24.5421C152.243 25.2637 151.536 25.7978 150.644 26.1444C149.758 26.4909 148.758 26.6642 147.644 26.6642ZM147.618 19.1728C148.351 19.1728 148.971 19.0023 149.476 18.6614C149.988 18.3148 150.374 17.8205 150.635 17.1784C150.902 16.5307 151.036 15.7551 151.036 14.8517C151.036 13.9711 150.905 13.1955 150.644 12.525C150.383 11.8546 149.999 11.3319 149.493 10.9569C148.988 10.5762 148.363 10.3858 147.618 10.3858C146.851 10.3858 146.212 10.5847 145.701 10.9824C145.189 11.3745 144.803 11.9086 144.542 12.5847C144.286 13.2608 144.158 14.0165 144.158 14.8517C144.158 15.7097 144.289 16.4625 144.55 17.1103C144.812 17.758 145.198 18.2637 145.709 18.6273C146.226 18.9909 146.863 19.1728 147.618 19.1728Z" fill="#7A5AF8"/>
<path d="M162.14 21.7466C160.85 21.7466 159.739 21.4711 158.807 20.9199C157.881 20.3631 157.165 19.5819 156.66 18.5762C156.16 17.5648 155.91 16.3801 155.91 15.0222C155.91 13.6813 156.16 12.4995 156.66 11.4767C157.165 10.454 157.87 9.65571 158.773 9.08185C159.682 8.50799 160.745 8.22106 161.961 8.22106C162.7 8.22106 163.415 8.34322 164.109 8.58753C164.802 8.83185 165.424 9.21537 165.975 9.7381C166.526 10.2608 166.961 10.9398 167.279 11.775C167.597 12.6046 167.756 13.6131 167.756 14.8006V15.704H157.35V13.7949H165.259C165.259 13.1245 165.123 12.5307 164.85 12.0137C164.577 11.4909 164.194 11.079 163.7 10.7779C163.211 10.4767 162.637 10.3262 161.978 10.3262C161.262 10.3262 160.637 10.5023 160.103 10.8546C159.575 11.2012 159.165 11.6557 158.876 12.2182C158.592 12.775 158.45 13.3801 158.45 14.0336V15.525C158.45 16.4 158.603 17.1444 158.91 17.758C159.222 18.3716 159.657 18.8404 160.214 19.1642C160.771 19.4824 161.421 19.6415 162.165 19.6415C162.648 19.6415 163.089 19.5733 163.486 19.437C163.884 19.2949 164.228 19.0847 164.518 18.8063C164.807 18.5279 165.029 18.1841 165.182 17.775L167.594 18.2097C167.401 18.9199 167.055 19.5421 166.555 20.0762C166.06 20.6046 165.438 21.0165 164.688 21.312C163.944 21.6017 163.094 21.7466 162.14 21.7466Z" fill="#7A5AF8"/>
<path d="M176.225 8.39151V10.437H169.074V8.39151H176.225ZM170.992 5.25515H173.54V17.6387C173.54 18.133 173.614 18.5051 173.761 18.7551C173.909 18.9995 174.1 19.1671 174.333 19.258C174.571 19.3432 174.83 19.3858 175.108 19.3858C175.313 19.3858 175.492 19.3716 175.645 19.3432C175.798 19.3148 175.918 19.2921 176.003 19.275L176.463 21.3801C176.315 21.437 176.105 21.4938 175.833 21.5506C175.56 21.6131 175.219 21.6472 174.81 21.6529C174.139 21.6642 173.514 21.5449 172.935 21.2949C172.355 21.0449 171.886 20.6586 171.529 20.1358C171.171 19.6131 170.992 18.9569 170.992 18.1671V5.25515Z" fill="#7A5AF8"/>
<path d="M181.403 13.7097V21.4824H178.855V4.02787H181.369V10.5222H181.531C181.838 9.81765 182.306 9.25799 182.937 8.84321C183.568 8.42844 184.392 8.22106 185.409 8.22106C186.306 8.22106 187.09 8.40572 187.761 8.77503C188.437 9.14435 188.96 9.69549 189.329 10.4284C189.704 11.1557 189.892 12.0648 189.892 13.1557V21.4824H187.343V13.4625C187.343 12.5023 187.096 11.758 186.602 11.2296C186.108 10.6955 185.42 10.4284 184.539 10.4284C183.937 10.4284 183.397 10.5563 182.92 10.812C182.448 11.0676 182.076 11.4426 181.804 11.937C181.537 12.4256 181.403 13.0165 181.403 13.7097Z" fill="#7A5AF8"/>
<path d="M198.464 21.7466C197.174 21.7466 196.064 21.4711 195.132 20.9199C194.206 20.3631 193.49 19.5819 192.984 18.5762C192.484 17.5648 192.234 16.3801 192.234 15.0222C192.234 13.6813 192.484 12.4995 192.984 11.4767C193.49 10.454 194.194 9.65571 195.098 9.08185C196.007 8.50799 197.069 8.22106 198.285 8.22106C199.024 8.22106 199.74 8.34322 200.433 8.58753C201.126 8.83185 201.748 9.21537 202.299 9.7381C202.851 10.2608 203.285 10.9398 203.603 11.775C203.922 12.6046 204.081 13.6131 204.081 14.8006V15.704H193.674V13.7949H201.584C201.584 13.1245 201.447 12.5307 201.174 12.0137C200.902 11.4909 200.518 11.079 200.024 10.7779C199.535 10.4767 198.961 10.3262 198.302 10.3262C197.586 10.3262 196.961 10.5023 196.427 10.8546C195.899 11.2012 195.49 11.6557 195.2 12.2182C194.916 12.775 194.774 13.3801 194.774 14.0336V15.525C194.774 16.4 194.927 17.1444 195.234 17.758C195.547 18.3716 195.981 18.8404 196.538 19.1642C197.095 19.4824 197.745 19.6415 198.49 19.6415C198.973 19.6415 199.413 19.5733 199.811 19.437C200.209 19.2949 200.552 19.0847 200.842 18.8063C201.132 18.5279 201.353 18.1841 201.507 17.775L203.919 18.2097C203.726 18.9199 203.379 19.5421 202.879 20.0762C202.385 20.6046 201.763 21.0165 201.013 21.312C200.268 21.6017 199.419 21.7466 198.464 21.7466Z" fill="#7A5AF8"/>
<path d="M206.438 21.4824V8.39151H208.901V10.4711H209.038C209.276 9.76651 209.697 9.21253 210.299 8.80912C210.907 8.40003 211.594 8.19549 212.361 8.19549C212.521 8.19549 212.708 8.20117 212.924 8.21253C213.146 8.2239 213.319 8.2381 213.444 8.25515V10.6926C213.342 10.6642 213.16 10.633 212.898 10.5989C212.637 10.5591 212.376 10.5392 212.114 10.5392C211.512 10.5392 210.975 10.6671 210.503 10.9228C210.038 11.1728 209.668 11.5222 209.396 11.9711C209.123 12.4142 208.986 12.9199 208.986 13.4881V21.4824H206.438Z" fill="#7A5AF8"/>
<path fill-rule="evenodd" clip-rule="evenodd" d="M243.639 5.212C243.575 4.83057 243.527 4.45347 243.495 4.07633C243.448 3.51062 243.477 2.94058 243.461 2.37486C243.453 2.13486 243.425 1.50916 243.436 1.41916C243.541 0.63487 244.174 0.514855 244.359 0.493426C244.449 0.480569 245.369 0.377758 245.567 1.39776C245.811 2.6449 245.889 3.9006 245.802 5.1306C246.003 6.17631 246.347 7.21772 246.801 8.16058C248.607 11.9106 252.048 12.2749 255.777 12.2406C256.35 12.232 256.827 12.682 256.857 13.252C256.887 13.8263 256.46 14.3234 255.889 14.3749C253.805 14.5763 250.107 16.2477 248.829 17.9877C248.561 18.352 248.406 19.2306 248.2 20.092C247.913 21.2878 247.571 22.4706 247.188 22.9677C247.131 23.0449 246.433 23.8335 246.225 23.9492C245.724 24.2235 245.323 24.0649 245.096 23.9192C244.868 23.7734 244.611 23.4863 244.508 23.0106C244.4 22.5134 244.491 21.4934 244.474 21.2749C244.413 20.482 244.255 18.9263 243.931 17.5891C243.757 16.8692 243.571 16.2049 243.263 15.8749C242.124 14.6534 240.303 14.8335 238.769 15.0349C238.593 15.0563 238.416 15.082 238.241 15.1035C237.616 15.2878 236.953 15.4249 236.253 15.5063C235.194 15.6306 235.02 14.6577 235.011 14.5934C234.991 14.452 234.918 13.7235 235.716 13.432C235.803 13.402 236.445 13.2606 236.692 13.2049C237.036 13.1277 237.385 13.0677 237.735 13.012C241.347 11.8892 243.309 8.73486 243.639 5.212ZM244.879 9.10775C246.243 11.9278 248.313 13.2906 250.766 13.9077C249.234 14.7092 247.84 15.712 247.102 16.7192C246.822 17.1006 246.564 17.8677 246.333 18.7292C246.207 17.9277 246.037 17.0749 245.813 16.3463C245.558 15.5149 245.215 14.8249 244.832 14.4135C244.092 13.6206 243.164 13.1792 242.166 12.9606C243.36 11.902 244.266 10.582 244.879 9.10775Z" fill="#7A5AF8"/>
</svg>
