<svg width="88" height="86" viewBox="0 0 88 86" fill="none" xmlns="http://www.w3.org/2000/svg">
<path id="Vector" d="M66.3818 56.0188C68.1926 62.166 71.9471 70.4578 70.3564 76.7951C67.8179 86.9112 55.0617 80.6017 50.1314 76.91C48.8227 75.9301 47.5237 74.9334 46.273 73.8809C44.7837 72.6294 43.3146 71.349 41.8971 70.0161C37.8299 74.8779 32.0607 80.2134 26.0199 82.3788C20.9582 84.1928 16.7459 81.9672 15.8063 76.5783C14.6837 70.1451 16.5235 62.8049 18.1619 56.6118C13.2694 51.9612 8.19085 47.2445 4.56283 41.5494C1.07584 36.0735 3.6828 30.9474 9.81465 29.5436C11.7955 29.0899 13.8247 28.8652 15.8522 28.7669C18.5823 28.6346 24.1681 28.8499 26.8136 28.8499C26.9982 28.7435 27.3922 27.1195 27.4914 26.8431C28.161 24.9654 28.8638 23.1129 29.6447 21.278C30.2345 19.8935 30.8358 18.5128 31.4522 17.1404C33.6458 12.2552 38.5197 -0.889039 45.8563 4.11863C46.6025 4.62794 47.2295 5.26863 47.7985 5.9641C48.7397 7.11327 49.4779 8.46928 50.1548 9.78607C51.4281 12.2577 52.4225 14.8574 53.4339 17.4434C54.9441 21.3043 56.2101 25.2974 57.8831 29.0939C57.9041 29.1406 57.9194 29.1899 57.9315 29.2391C60.4192 29.3003 62.9133 29.344 65.3986 29.4681C70.8205 29.7372 79.2983 28.327 81.6772 33.7327C82.9633 36.6556 81.5402 39.7483 79.7939 42.1184C76.2456 46.9343 71.4467 50.65 66.7944 54.328M51.1601 12.0413C53.0493 10.1758 55.1006 8.38641 57.1357 6.68303M55.1531 21.8893C57.7451 19.428 60.3055 16.9603 62.9435 14.5504M65.2472 29.4035C67.2885 27.0082 69.349 24.6096 71.5469 22.3533M80.0233 31.3949C81.4924 30.1047 82.927 28.7701 84.3285 27.4069M68.0118 61.0227C69.302 59.8162 70.5946 58.6175 71.9616 57.4978M70.6563 74.9081C72.0824 73.6217 73.5047 72.3139 75.0077 71.1158M48.6397 75.751C46.656 78.091 44.3744 80.0109 41.9836 81.9132" stroke="url(#paint0_linear_58_1167)" stroke-width="6" stroke-miterlimit="1.5" stroke-linecap="round" stroke-linejoin="round"/>
<defs>
<linearGradient id="paint0_linear_58_1167" x1="3" y1="43.1794" x2="84.3285" y2="43.1794" gradientUnits="userSpaceOnUse">
<stop stop-color="#7A5AF8"/>
<stop offset="1" stop-color="#F670C7"/>
</linearGradient>
</defs>
</svg>
